<svg xmlns="http://www.w3.org/2000/svg" viewBox="0 0 1053.18 1053"><g id="Capa_2" data-name="Capa 2"><g id="Capa_1-2" data-name="Capa 1"><path d="M526.5,829.83a303.66,303.66,0,1,1,214.39-88.94A303.33,303.33,0,0,1,526.5,829.83Zm0-603.2a300.2,300.2,0,1,0,212,87.92A299.86,299.86,0,0,0,526.5,226.63Z"/><path d="M526.5,930.34c-222.65,0-403.84-181.14-403.84-403.84A403,403,0,0,1,371.1,153.75l1.35,3.18A399.57,399.57,0,0,0,126.09,526.5c0,220.77,179.64,400.42,400.41,400.42Z"/><path d="M706.52,888.09,705,885A400.49,400.49,0,0,0,573.16,128.76l.4-3.43a403.95,403.95,0,0,1,133,762.76Z"/><path d="M526.5,1053C236.18,1053,0,816.82,0,526.5A522.82,522.82,0,0,1,99.59,218.27l2.8,2A519.36,519.36,0,0,0,3.45,526.5c0,288.42,234.63,523.05,523.05,523.05a525.34,525.34,0,0,0,118.2-13.41l.78,3.35A529.39,529.39,0,0,1,526.5,1053Z"/><path d="M889.42,907.93l-2.38-2.5a523.77,523.77,0,0,0,134.21-549.07l3.26-1.12A526.07,526.07,0,0,1,889.42,907.93Z"/><path d="M804.54,83.38A524.22,524.22,0,0,0,330.75,41.3l-1.3-3.2A527.67,527.67,0,0,1,806.36,80.45Z"/></g></g></svg>