<svg xmlns="http://www.w3.org/2000/svg" viewBox="0 0 343.07 97"><g id="Capa_2" data-name="Capa 2"><g id="Capa_1-2" data-name="Capa 1"><path d="M0,48.47A59.13,59.13,0,0,1,26.16,0l1.11.89C17,11,10.46,27.21,10.46,48.47S17,86.08,27.27,96l-1.11,1A59.1,59.1,0,0,1,0,48.47Z"/><path d="M95.22,74.43v1.25H74.75a16.65,16.65,0,0,0-2.16-5.86L61.21,48.73,56.08,53.3V68.11c0,4.18,1.76,5.3,5.52,6.19v1.38H37.77V74.3c3.66-.89,5.42-2,5.42-6.19v-51c0-3.29-1.66-5-5.33-5.46H36.2V10.13L54.67,4.87h1.41V49.75L75.7,32.25c4-3.49,3.07-5.5-2.85-5.5V25.37h18.7v1.38c-4.64,0-7.12,1.22-14.12,7.37l-6.74,6.09L86.22,69.1a9.93,9.93,0,0,0,3.74,4A9.8,9.8,0,0,0,95.22,74.43Z"/><path d="M139.52,60.18A21,21,0,0,1,132,72.72a20.79,20.79,0,0,1-13.88,4.5c-15.73,0-24.23-11.94-24.23-25.5,0-16.61,9.81-27.73,25-27.73,13.83,0,20.56,8.75,20.56,21.88H106.3v.79c-.39,13.52,7.1,21.09,18.08,21.09a16.17,16.17,0,0,0,8-2.15,16.43,16.43,0,0,0,5.93-5.81ZM106.6,43.07h20c-.19-7.14-3.27-16.45-9.32-16.45S107.58,34.22,106.6,43.07Z"/><path d="M182.91,24.78l-.78,11.84a10.15,10.15,0,0,0-6.54-1.91,13.85,13.85,0,0,0-7.05,2.12,14,14,0,0,0-5,5.45v26c0,4.08,2,5.3,8.8,6.19v1.25h-28V74.3c4.55-.89,6.54-2.11,6.54-6.19V36.19c0-3.29-1.77-5-5.43-5.49H143.8V29.15l18.48-5.26h1.4V39c3.08-9.38,8.57-15.1,15-15.1A11.71,11.71,0,0,1,182.91,24.78Z"/><path d="M198.64,75.68H185.79l12-42.78a12.46,12.46,0,0,0,.49-2.43,4.88,4.88,0,0,0-.2-2c-.2-.56-.69-.82-1.5-.82a4.35,4.35,0,0,0-1.85.57,4.42,4.42,0,0,0-1.42,1.3A20.54,20.54,0,0,0,190,36.1l-1.8,4.77h-1.83L189,33.4a18.38,18.38,0,0,1,3.53-6.22,11.82,11.82,0,0,1,4.58-3.29A14.55,14.55,0,0,1,202,23,8.36,8.36,0,0,1,207,24.25a5.9,5.9,0,0,1,2.18,3.29,13.65,13.65,0,0,1,.14,4.64,36,36,0,0,1-.85,4.84Zm24.72-41.2a21.77,21.77,0,0,0,.85-3.29,4.54,4.54,0,0,0,0-2.37c-.23-.59-.82-.88-1.73-.88a7.23,7.23,0,0,0-2.86.92,7.4,7.4,0,0,0-2.24,2,42.18,42.18,0,0,0-5.6,8.16A105.93,105.93,0,0,0,206,51.49c-1.87,4.74-3.6,9.88-5.27,15.47l1.11-8.75a164.48,164.48,0,0,1,8.24-20.67,32,32,0,0,1,8.44-11.22A16,16,0,0,1,228.33,23a8.27,8.27,0,0,1,4.94,1.22,5.87,5.87,0,0,1,2.22,3.29,13.21,13.21,0,0,1,.26,4.77,38.57,38.57,0,0,1-1.08,5.63L224.24,75.68H211.16Zm26.16,0a13.36,13.36,0,0,0,.94-4.67c0-1.25-.55-1.87-1.53-1.87a7.37,7.37,0,0,0-4.81,2.56,37.64,37.64,0,0,0-5.52,7.73,105.29,105.29,0,0,0-5.92,12.64q-3,7.5-6.08,17.34l.68-6.94a189.29,189.29,0,0,1,6.61-18.5A56.7,56.7,0,0,1,240.43,31a21.74,21.74,0,0,1,6.8-6.22A16.08,16.08,0,0,1,254.72,23a7.59,7.59,0,0,1,3.24.38,7.8,7.8,0,0,1,2.81,1.7,7.74,7.74,0,0,1,1.79,5.52A25.63,25.63,0,0,1,261.22,38l-9.81,29.25a6.64,6.64,0,0,0-.49,4.14,1.83,1.83,0,0,0,1.87,1.12,4.49,4.49,0,0,0,3-1.61,20.66,20.66,0,0,0,3.54-6.58l1.57-4.57h1.89l-2.48,7.27a16.77,16.77,0,0,1-3.5,6.38,12.15,12.15,0,0,1-4.61,3,14.81,14.81,0,0,1-4.84.85,10.6,10.6,0,0,1-4.71-.92,6.53,6.53,0,0,1-2.81-2.47,8.18,8.18,0,0,1-1.08-5,27.18,27.18,0,0,1,1.57-7Z"/><path d="M277.54,54c2.91-1.12,5.62-2.34,8.21-3.62a31.49,31.49,0,0,0,6.54-4.25,27,27,0,0,0,6-7.89,21.67,21.67,0,0,0,2.29-9.87,6.19,6.19,0,0,0-.42-2.83,1.28,1.28,0,0,0-1.18-.66,7.76,7.76,0,0,0-4.71,2.24,28.42,28.42,0,0,0-5.17,6,58.94,58.94,0,0,0-4.64,8.56,60.9,60.9,0,0,0-3.27,10A45.55,45.55,0,0,0,280,62a10.83,10.83,0,0,0,2,7.57,7.16,7.16,0,0,0,2.46,1.6,7,7,0,0,0,2.9.47,16.44,16.44,0,0,0,6.83-1.87A23.77,23.77,0,0,0,302,63.17l1.57.79a32.67,32.67,0,0,1-5.33,6.39,28.69,28.69,0,0,1-7.55,5,22.63,22.63,0,0,1-9.45,1.94,17.88,17.88,0,0,1-7.92-1.64,12.3,12.3,0,0,1-5.23-4.77,14.75,14.75,0,0,1-1.93-7.74,35.75,35.75,0,0,1,1.57-10.52,45.67,45.67,0,0,1,4.84-10.73,47.09,47.09,0,0,1,7.52-9.51,35,35,0,0,1,9.61-6.78A26.74,26.74,0,0,1,301.08,23a12.32,12.32,0,0,1,6.9,1.81,6.41,6.41,0,0,1,2.1,2.54,6.49,6.49,0,0,1,.55,3.25,13.1,13.1,0,0,1-2.16,7.27,24.61,24.61,0,0,1-5.85,6.19,52.42,52.42,0,0,1-8,5,90.31,90.31,0,0,1-8.9,3.78c-3,1.06-5.79,1.91-8.37,2.57Z"/><path d="M315.8,96c10.3-9.87,16.8-26.32,16.8-47.54S326.06,11,315.8.89L316.91,0a59.13,59.13,0,0,1,26.16,48.47A59.17,59.17,0,0,1,316.91,97Z"/></g></g></svg>